<?xml version="1.0" encoding="utf-8"?>
<svg viewBox="260.8154602050781 174.35940551757812 57.89996337890625 81.79998779296875" width="57.89996337890625" height="81.79998779296875" xmlns="http://www.w3.org/2000/svg"><g transform="matrix(1, 0, 0, 1, -22.984600067138672, -6.340579509735107)"><path class="st1" d="M314.8,206.3c0.8-0.7,1.7-1.4,2.7-1.9c0.8-0.4,0.3-0.8,0.7-1.4c0.2-0.3,0.6-0.4,0.6-0.8c0-0.5-0.2-0.9,0.1-1.3&#10;&#9;&#9;c0.4-0.6,1.3-1.1,1.8-1.6c0.7-0.7,1.4-1.4,2.1-2.2c0.8-1,1.6-2.1,2.5-3.1c2-2.1,4.1-4.1,6.2-6.1c0.5-0.5,1.3-1.6,2.1-1.1&#10;&#9;&#9;c0.5,0.3,0.3,0.7,0.8,0.2c0.6-0.6,1-1,0.9-1.9c-0.1-1,0.6-2.6,0.9-3.6c0.3-0.8,1,0.1,1.2,0.4c0.4,0.9,1,0.9,1.9,1.3&#10;&#9;&#9;c2,0.9,1,1.9-0.5,2.5c-0.8,0.3-1.7,1.9-2.4,2.6c-0.6,0.6-0.6,0.5,0,1.2c0.9,1,1.9,2,2.8,3c0.7,0.7,1.6,1.4,2.3,2.2&#10;&#9;&#9;c0.2,0.3-1.3,1.5-1.6,1.8c-2,2-4,4-6,5.9c-0.8,0.7-1.5,1.5-2.4,2.1c-1.2,0.9-2.4,2.9-3.8,3.2c-1.2,0.3-1.7,0.5-2.2,1.6&#10;&#9;&#9;c-0.5,1.2-1,2.4-1.5,3.5c-1.2,2.7-2.5,5.1-4,7.6c-0.5,0.9-1,1.3-0.3,2c1.2,1.2,2.4,2.5,3.5,3.8c1.1,1.3,2,2.8,3.2,4.1&#10;&#9;&#9;c0.4,0.4,1.3,0.7,1.3,1.2c0,0.7-1.1,1.6-1.6,1.8c-0.5,0.2-1.3-1.2-1.6-1.6c-0.9-1.1-1.9-2.1-2.8-3.2c-0.8-0.8-1.6-1.7-2.4-2.5&#10;&#9;&#9;c-1.1-1.1-0.9,0.3-1.5,1.3c0.6,1.3,0.3,3.2-0.1,4.5c-0.4,1.1-0.2,2.3-0.2,3.5c0,3.1,0,6.1,0.4,9.2c0.2,1.8,0.3,3.6,0.5,5.4&#10;&#9;&#9;c0.1,1.4,0.6,3.2,0.5,4.6c-0.1,0.7-2,0.7-2.6,0.8c-1.4,0.3-2.7,0.6-4.1,0.9c-2.2,0.5,2.8,6.3-2.5,5.6c-1.9-0.2-3.7-0.1-5.6,0.1&#10;&#9;&#9;c-0.9,0.1-1.8,0.1-2.7,0.1c-0.7,0-1.9,0.3-2.4-0.3c-1.2-1.3,2.6-1.2,2.9-1.3c1.3-0.5,2.5-1.6,3.9-1.9c0.5-0.1,2.2-1.7,1.7-2.1&#10;&#9;&#9;c-0.7-0.6,0.2-1.3,0.2-1.9c0.1-0.7-0.3-1.6-0.4-2.3c-0.4-2.4-0.1-4.6,0.2-7c0.2-1.7,0.1-3.6,0.8-5.3c0.3-0.7,0.4-0.5,0-1.1&#10;&#9;&#9;c-0.7-0.9-0.8-1.6-1-2.6c-0.1-0.8-0.8-1,0-1.6c0.2-0.2,1.6-0.8,1.5-1.2c-0.4-1-1.1-1.5-1.3-2.7c-0.3-1.4,0.2-3.6-0.5-4.9&#10;&#9;&#9;c-0.2-0.4-1.2-0.2-1.6-0.3c-0.4,0-0.8-0.1-1.1-0.3c-0.5-0.4-0.5,0-1.1-0.1c-0.8-0.1-0.8-0.9-1.7-0.7c-0.7,0.2-1.7,0.5-2.4,0.1&#10;&#9;&#9;c0.3,0.9,0.4,2,0.2,3c-0.1,0.6-1,0.7-1.5,0.8c-0.6,0.1-0.7,0.5-1.3,0.8c-1.3,0.6-3.1-0.9-4-1.7c-1.2-1.1-2.6-1.8-4-2.7&#10;&#9;&#9;c-0.9-0.6-2.6-1.8-2.5-3c0-0.6,0.4-1,0.5-1.6c0.1-0.7,0-1.5,0.1-2.2c0.2-1.5,1-2.3,2-3.4c1-1-1.2-2.1-0.1-2.9&#10;&#9;&#9;c0.5-0.4,0.6-1.1,0.2-1.6c-0.4-0.5-1.2-0.1-1.8-0.5c-0.4-0.3-1.6-0.7-1.8-1.3c-0.2-0.9-0.8-1.7-1-2.5c-0.3-1-0.3-2.8,0.1-3.8&#10;&#9;&#9;c0.2-0.5,0.6-0.7,0.8-1.2c0.2-0.4,0.6-0.4,0.8-0.7c0.2-0.3,1-0.4,1.1-0.4c0.2-0.4,0.2-0.4,0.4-0.2c0.3,0.3,1.7-0.8,1.9-0.6&#10;&#9;&#9;c0.3,0.3,1.4-0.2,1.6,0c0-0.1-0.1-0.1-0.1-0.1c0,0.5,0.8,0.4,0.9,0.7c0.2,0.4,0.6,0.9,0.9,1.4c0.6,1.1,1.3,2.2,1.2,3.5&#10;&#9;&#9;c0,0.6,0.5,1.2,0.6,1.8c0.1,0.6-0.1,1.8-0.4,2.3c-0.1,0.1,1.3,0.2,1.7-0.1c0.7-0.6,1.2-1.4,2-1.9c1.2-0.7,3-0.6,4.4-0.8&#10;&#9;&#9;c1.4-0.1,2.7-0.3,4.1-0.1c0.7,0.1,1.3,0.3,1.8,0.8c0.6,0.6,1.3,0.9,2,0.3c0.5-0.5,2.3-3,2.6-1c0.3-0.7,0.7-1.3,1-2&#10;&#9;&#9;c0.5-1,0.7-1.6-0.4-1.9c-0.5-0.1-0.7-1.7-0.9-2.2c-0.3-0.7,0.9-0.7,1.2-1.2c0.3-0.4,2.1-0.4,2.5-0.2c0.8,0.3,1.1,1.2,0.8,1.9&#10;&#9;&#9;C316.4,202.4,314.6,204.2,314.8,206.3" style="fill: rgb(204, 204, 204);" transform="matrix(1, 0, 0, 1, 1.8189894035458565e-12, 4.547473508864641e-13)"/></g></svg>